HIERARCHY
ROOT Hips
{
     OFFSET 1.88212 96.90440 -13.34250
     CHANNELS 6 Xposition Yposition Zposition Zrotation Xrotation Yrotation
     JOINT Spine
     {
          OFFSET 0.00000 11.89050 0.00000
          CHANNELS 3 Zrotation Xrotation Yrotation
          JOINT Spine1
          {
               OFFSET -0.00000 25.65740 0.12766
               CHANNELS 3 Zrotation Xrotation Yrotation
               JOINT HEad
               {
                    OFFSET 0.00000 8.73416 0.01134
                    CHANNELS 3 Zrotation Xrotation Yrotation
                    End Site
                    {
                         OFFSET -0.29000 12.77420 2.51395
                    }
               }
               JOINT LeftShoulder1
               {
                    OFFSET 8.99000 -0.36225 -0.22000
                    CHANNELS 3 Zrotation Xrotation Yrotation
                    JOINT LeftArm
                    {
                         OFFSET 10.28270 -0.00338 0.32212
                         CHANNELS 3 Zrotation Xrotation Yrotation
                         JOINT LeftForeArm
                         {
                              OFFSET 32.76690 0.09914 -1.42434
                              CHANNELS 3 Zrotation Xrotation Yrotation
                              JOINT LeftHand
                              {
                                   OFFSET 27.56430 0.08536 1.02216
                                   CHANNELS 3 Zrotation Xrotation Yrotation
                                   End Site
                                   {
                                        OFFSET 16.74430 -0.60000 1.50291
                                   }
                              }
                         }
                    }
               }
               JOINT RightShoulder
               {
                    OFFSET -8.99000 -0.36225 -0.22000
                    CHANNELS 3 Zrotation Xrotation Yrotation
                    JOINT RightArm
                    {
                         OFFSET -10.28270 -0.00338 0.32212
                         CHANNELS 3 Zrotation Xrotation Yrotation
                         JOINT RightForeArm
                         {
                              OFFSET -32.89710 0.09914 -1.42434
                              CHANNELS 3 Zrotation Xrotation Yrotation
                              JOINT RightHand
                              {
                                   OFFSET -27.49210 0.08536 1.02216
                                   CHANNELS 3 Zrotation Xrotation Yrotation
                                   End Site
                                   {
                                        OFFSET -16.63120 -0.60000 1.50291
                                   }
                              }
                         }
                    }
               }
          }
     }
     JOINT LeftUpLeg
     {
          OFFSET 8.94580 -8.66707 0.10165
          CHANNELS 3 Zrotation Xrotation Yrotation
          JOINT LeftLeg
          {
               OFFSET 0.00000 -44.42270 1.37270
               CHANNELS 3 Zrotation Xrotation Yrotation
               JOINT LeftFoot
               {
                    OFFSET -0.25355 -42.09240 -1.46059
                    CHANNELS 3 Zrotation Xrotation Yrotation
                    JOINT LeftToes
                    {
                         OFFSET -0.04000 -4.41509 8.49910
                         CHANNELS 3 Zrotation Xrotation Yrotation
                         End Site
                         {
                              OFFSET 0.08000 -0.04745 9.77979
                         }
                    }
               }
          }
     }
     JOINT RightUpLeg
     {
          OFFSET -8.94580 -8.66707 0.10165
          CHANNELS 3 Zrotation Xrotation Yrotation
          JOINT RightLeg
          {
               OFFSET 0.00000 -44.42270 1.37270
               CHANNELS 3 Zrotation Xrotation Yrotation
               JOINT RightFoot
               {
                    OFFSET 0.25355 -42.09240 -1.46059
                    CHANNELS 3 Zrotation Xrotation Yrotation
                    JOINT RightToes
                    {
                         OFFSET 0.04000 -4.41509 8.49910
                         CHANNELS 3 Zrotation Xrotation Yrotation
                         End Site
                         {
                              OFFSET -0.08000 -0.13745 9.77979
                         }
                    }
               }
          }
     }
}
MOTION
Frames: 20
Frame Time: 0.01667
11.99077 67.11151 -170.02483 -3.22487 -3.73177 -34.05863 -6.90927 27.60875 2.16168 0.00539 -0.02093 0.01152 -10.01258 -3.34638 37.29441 -2.33515 4.28719 2.72986 -247.32324 -70.27914 -214.01797 -60.23038 59.16949 -92.25431 7.06537 15.87501 -3.26329 8.18404 2.41870 12.93999 59.28281 -14.19510 68.98574 21.11592 41.05553 106.31739 -7.33070 9.00277 -0.54581 13.00474 -49.50989 9.10049 75.82512 58.48984 -55.01493 -12.80497 -0.12247 -0.20944 -32.39364 -19.02314 -15.77270 -41.71972 -7.21223 0.05618 23.44841 51.04554 -6.96933 5.15967 0.00597 -0.14870 -11.03862 -68.98750 -24.11817 
11.72941 66.55399 -172.18579 -4.01196 -3.97010 -34.97638 -6.70337 30.44755 1.34164 0.00338 -0.01858 0.01336 -10.04547 -5.60984 38.10563 -2.66270 2.54256 4.25679 -248.89583 -71.36480 -214.57553 -59.92167 59.05764 -93.15253 6.83099 15.98595 -3.20717 7.66285 1.38870 13.84503 59.30038 -13.85403 68.79189 20.95786 40.94275 106.70059 -7.14775 9.14583 -0.21027 9.97791 -49.07294 9.03133 79.36803 55.25845 -56.94433 -10.67021 0.01803 -0.00899 -32.90339 -20.27129 -18.25468 -42.24731 -11.64620 -4.65733 24.21647 59.73610 -4.40684 -0.81068 0.02509 -0.14569 -10.47642 -73.07473 -27.26727 
11.55564 66.16550 -173.99469 -4.67116 -4.21407 -35.86228 -6.52084 32.78655 0.71811 0.00102 -0.01659 0.01503 -10.12516 -7.40917 38.76190 -2.89147 1.07871 5.65020 -249.22331 -72.39654 -214.27960 -59.48537 58.86019 -93.81914 6.66300 15.87113 -3.37018 7.09015 0.51166 14.72779 59.46927 -13.61665 68.74343 21.00068 40.76384 106.73528 -6.90873 9.31112 0.29310 8.17845 -48.43979 9.66222 81.15214 51.95846 -57.56139 -31.65976 -0.15367 0.12863 -14.38595 -19.72820 -15.94239 -42.86121 -15.78353 -8.98787 24.56763 67.64067 -2.39774 -6.65725 0.03788 -0.11625 -10.24249 -74.76691 -30.76876 
11.47332 66.17745 -175.20331 -5.11961 -4.43382 -36.64788 -6.36557 34.13739 0.28926 -0.00335 -0.01211 0.01823 -10.24320 -8.33799 39.26757 -3.02552 0.03874 7.41227 -235.17603 -74.69054 -202.62286 -58.62077 57.34299 -91.03060 6.44423 15.87916 -3.79714 6.56359 -0.05721 15.69776 59.77536 -13.58521 68.84554 21.36740 40.37775 106.28240 -6.73364 9.81899 1.24649 7.47817 -47.70162 10.94993 80.08530 50.32862 -55.98839 -26.29139 0.03990 -0.01976 -19.44486 -20.18226 -15.35791 -42.80318 -18.46491 -12.19596 22.39854 72.95121 0.72626 -11.93755 0.03441 -0.06637 -9.99010 -75.75328 -34.90779 
11.43513 66.40417 -176.01376 -5.37957 -4.58808 -37.29144 -6.18460 34.57966 0.08513 -0.00489 -0.00730 0.01870 -10.40888 -8.48154 39.54362 -3.27034 -0.48320 9.15395 -210.58974 -74.69688 -182.36688 -59.03238 55.53713 -85.40736 6.07244 15.70413 -3.31214 6.04635 -0.22137 16.50478 60.27190 -13.65639 69.38368 21.96604 39.84237 105.33948 -6.28784 10.04644 1.62790 7.75353 -46.89833 12.75660 77.55914 50.13552 -53.57150 -28.52183 0.01254 0.01556 -16.61705 -19.88790 -14.63633 -42.18033 -19.81400 -14.19364 13.59021 74.22443 9.06887 -15.21053 0.00543 0.01924 -4.65961 -74.26072 -34.20884 
11.45355 66.98718 -176.40063 -5.44039 -4.63335 -37.79455 -5.98649 34.18875 0.13763 -0.00678 -0.00123 0.01758 -10.60553 -7.95357 39.55652 -3.29002 -0.54457 10.29929 -197.52664 -73.70457 -171.84384 -59.40869 54.62223 -82.81550 5.80256 15.62774 -2.84263 5.66405 -0.03156 17.02464 60.83331 -13.73729 70.30222 22.67450 39.20042 104.07124 -6.00737 10.39554 2.21273 9.68320 -45.32005 15.13152 72.26054 51.03027 -49.57774 -30.01113 0.00092 0.00470 -13.59909 -19.91558 -14.48208 -41.05561 -19.98488 -15.02509 4.39545 72.10137 16.71138 -17.13354 -0.01411 0.03627 9.29357 -60.81397 -39.22933 
11.59860 68.29875 -176.07596 -5.30050 -4.54200 -38.16737 -5.69991 33.03224 0.43181 -0.00347 0.00209 0.01597 -10.90190 -6.83005 39.28943 -2.75568 -0.34975 10.90641 -191.14473 -73.04443 -166.92070 -59.63966 53.94203 -81.70905 5.42382 15.81319 -2.22623 5.79402 0.38070 17.15242 63.38153 -13.11749 75.27567 25.29271 39.01487 97.85780 -5.75016 10.66387 2.67212 12.41911 -43.00187 17.68844 64.44236 52.68019 -44.15712 -30.00485 -0.00554 0.00030 -11.70884 -19.54177 -14.65161 -39.61452 -18.93684 -14.82505 -0.09667 65.57583 18.30584 2.01250 0.36704 -0.67818 9.92432 -48.47103 -29.39022 
11.80641 70.04772 -175.37451 -4.99461 -4.31987 -38.45017 -4.88085 30.65822 1.90228 0.02703 -0.04160 0.10475 -11.77664 -4.32947 37.68315 -2.45335 0.96436 9.54079 -187.90729 -72.51144 -164.82227 -53.22351 55.23754 -89.52922 5.66959 12.00263 2.20010 5.64158 1.63345 15.71321 64.92987 -12.70218 78.47604 26.77631 38.77203 94.17978 -5.53165 10.67150 2.74056 15.42470 -40.14460 20.03162 54.17050 54.69319 -37.27047 -29.19314 -0.00905 0.00559 -9.78412 -19.46497 -15.12178 -37.92420 -16.69201 -13.70084 -2.28397 58.24627 15.76452 21.12875 0.29839 -0.81591 -0.32346 -30.75174 -29.06645 
12.07739 72.19434 -174.26089 -4.56838 -3.97027 -38.67631 -3.99318 27.95130 3.42554 -0.00376 0.01504 0.00608 -12.53626 -1.74173 36.27524 -1.98409 2.34659 8.13137 -185.95374 -72.12078 -163.81570 -49.47010 55.47887 -93.48488 5.84418 9.94767 4.46000 5.68084 2.96595 14.47039 65.82253 -12.43000 80.54224 27.48338 38.53820 92.08591 -5.52675 10.60736 2.72180 18.21461 -37.90442 22.11556 42.89397 57.22015 -30.12745 -27.37301 -0.00926 0.02326 -8.09493 -19.28765 -15.70114 -36.15965 -13.48545 -11.79631 -3.38949 51.48849 11.82545 39.91824 0.09129 -0.66123 -10.11460 -16.55029 -29.34139 
12.47652 74.91525 -172.53131 -4.08069 -3.57714 -38.89830 -3.08435 25.49156 4.87285 -0.00256 0.01821 -0.00107 -13.32665 0.65235 34.94491 -1.32149 3.60862 6.69184 -185.12137 -71.79007 -163.45938 -47.66558 55.34720 -95.03529 5.84721 8.55030 5.27130 5.83945 4.15438 13.22551 66.30317 -12.11457 81.95518 27.66382 38.30314 91.02127 -5.76771 10.30126 2.69998 20.20048 -35.01514 23.05972 27.96568 60.76238 -22.05588 -25.62869 0.12069 0.02296 -11.67515 -6.20024 -16.52910 -34.31865 -9.51443 -9.16998 -3.91713 44.81465 7.00612 58.36716 -0.04625 -0.53001 -23.00804 -0.93563 -19.69127 
12.84269 77.66230 -170.50488 -3.57357 -3.20430 -39.12063 -2.19135 23.32181 6.23534 -0.00020 0.01822 -0.00326 -14.11897 2.81445 33.79688 -0.84848 4.74873 5.31509 -185.10910 -71.46113 -163.68794 -47.11228 55.27798 -95.29559 5.86201 7.71643 5.62056 6.01094 5.25401 11.96893 66.62366 -11.69783 82.93537 27.46458 38.17888 90.66338 -5.76232 10.10572 2.29051 22.11078 -32.48501 23.88595 10.95258 62.86002 -12.83599 -23.36963 0.06312 0.07553 -3.78254 -14.42667 -13.05312 -32.75422 -5.95609 -6.81486 -3.81306 40.20145 3.59355 34.59230 0.11662 0.14755 0.56473 -3.66090 -21.57588 
13.20575 80.31086 -168.22713 -3.07683 -2.89854 -39.34045 -1.34589 21.45128 7.49412 0.00142 0.01770 -0.00540 -14.91284 4.77769 32.85894 -0.62280 5.82153 4.04670 -185.81670 -71.12982 -164.34921 -47.35732 55.40212 -94.97550 6.01585 7.12495 5.49133 6.18813 6.31307 10.68252 66.86782 -11.19993 83.55251 27.01764 38.19222 90.82842 -5.96795 9.82985 1.94068 23.84468 -30.11708 24.51615 -2.72288 62.77432 -5.90845 -22.69592 0.02819 0.01922 -5.72670 3.75500 -8.88459 -31.38823 -2.95058 -4.73975 -3.40504 35.75283 0.60032 10.27459 -0.00560 0.21005 25.49011 11.67094 -5.36855 
13.66374 82.90411 -165.65034 -2.62422 -2.76295 -39.55788 -0.60675 19.93980 8.62516 0.00076 0.01763 -0.00810 -15.71598 6.58135 32.14970 -0.66751 6.94807 2.86906 -187.24316 -70.70190 -165.34093 -48.19269 55.72072 -94.35110 6.45100 6.60319 5.50734 6.34888 7.43633 9.31731 67.14349 -10.65068 83.91788 26.44476 38.31717 91.33861 -6.19320 9.64354 1.24632 25.07647 -27.71443 24.74176 -12.89499 61.32651 -1.35818 -23.01062 0.00113 -0.00235 -0.07299 -2.32737 -5.81478 -29.38449 -1.36135 -3.51506 -1.60544 34.77150 -0.48891 33.32252 -0.22637 0.37885 10.30236 0.88135 1.82271 
14.08045 85.24559 -163.10706 -2.24815 -2.78527 -39.77864 0.02086 18.75970 9.62766 0.00056 0.01661 -0.00971 -16.51139 8.24537 31.66301 -0.85899 7.99302 1.84550 -189.07785 -70.34042 -166.37798 -49.35590 56.18658 -93.62509 6.59361 6.58110 5.11596 6.48958 8.47495 7.97437 67.45858 -10.09761 83.95459 25.81271 38.53698 92.07452 -6.22358 9.56787 0.83136 26.04933 -25.54765 24.67543 -19.72108 59.95201 2.01261 -0.71209 0.23152 0.18485 -19.80651 -3.03443 -4.98205 -27.45261 -0.85993 -3.14890 -0.87760 34.33512 0.92080 55.63401 -0.32806 0.54084 -25.95161 -4.47301 11.69610 
14.44805 87.33183 -160.70793 -1.96660 -2.93789 -39.99982 0.52732 17.87730 10.50002 -0.00020 0.01575 -0.01055 -17.27411 9.77314 31.38393 -1.11727 8.93370 0.97170 -191.11102 -70.06084 -167.35463 -50.65141 56.70071 -92.85531 6.87121 6.58193 4.88642 6.62368 9.40353 6.72448 67.80013 -9.58550 83.72855 25.16073 38.81188 92.92030 -6.25070 9.52751 0.27154 26.35847 -23.53609 24.13577 -22.46907 57.14907 3.89628 19.60985 -0.04065 -0.20527 -24.95126 -15.78476 1.32604 -25.34570 -1.46313 -3.52723 1.51440 34.64366 2.16982 41.70769 0.14743 -0.33824 -10.47027 -6.08664 6.81111 
14.85202 89.04791 -158.32755 -1.77952 -3.17592 -40.19295 0.91986 17.23825 11.21901 -0.00172 0.01576 -0.01012 -17.99428 11.16922 31.29076 -1.44452 9.70953 0.21392 -193.13795 -69.91203 -168.19760 -51.83242 57.18717 -92.06072 7.01687 6.87399 4.54656 6.75722 10.16646 5.64169 68.11976 -9.15528 83.23709 24.48396 39.12395 93.74328 -6.07379 9.58665 -0.18752 25.62218 -21.75698 21.88263 -24.30857 52.82194 7.43958 38.73413 -0.39342 -0.18196 -48.69517 -9.46981 -1.01686 -22.97243 -3.04975 -4.54464 5.08920 35.46252 2.32194 39.37853 0.05670 -0.04713 -20.90253 -22.77726 15.19173 
15.25221 90.42040 -156.18004 -1.66346 -3.46354 -40.33349 1.19926 16.79654 11.77194 -0.00163 0.01500 -0.00916 -18.66675 12.42340 31.35827 -1.68662 10.29103 -0.39059 -195.01547 -69.90004 -168.78831 -52.80634 57.58471 -91.34164 7.01032 7.21230 3.89948 6.92080 10.73675 4.79477 68.36306 -8.84981 82.56225 23.80861 39.42204 94.53034 -6.00593 9.62946 -0.31220 24.09971 -19.82216 19.29712 -24.08210 47.72736 10.38510 56.69315 -0.53008 0.01672 -46.34894 -10.87087 7.91513 -20.22572 -5.57102 -6.06438 6.59950 36.99565 2.38397 31.44363 0.11847 -0.01181 -16.02284 -17.32054 9.44813 
15.69488 91.40125 -154.19092 -1.56598 -3.79488 -40.44575 1.33094 16.51433 12.19984 -0.00098 0.01417 -0.00775 -19.29410 13.52527 31.55784 -1.79050 10.65701 -0.83850 -196.69778 -70.01302 -169.16605 -53.54583 57.86105 -90.72552 6.88253 7.67125 3.26807 7.12372 11.09815 4.18458 68.50333 -8.66912 81.79911 23.16455 39.67699 95.23961 -5.82970 9.73105 -0.39441 22.65894 -18.15110 16.79148 -19.89036 41.18410 10.35890 28.80435 1.00849 0.42209 -28.54480 -4.60328 2.01983 -18.25294 -7.74441 -7.47310 4.81115 38.98902 4.19007 25.67020 0.05355 -0.01014 -23.11091 -37.02451 9.36908 
16.31637 91.72144 -152.05373 -1.44132 -4.18310 -40.55462 1.31662 16.35305 12.54268 0.00081 0.01365 -0.00514 -19.89756 14.47307 31.86229 -1.72267 10.73332 -1.13700 -198.30051 -70.29643 -169.50002 -53.99260 58.03371 -90.27652 6.62441 8.28795 2.37389 7.42888 11.18234 3.84954 68.42316 -8.66382 80.94967 22.53662 39.90966 95.83801 -5.63760 9.97847 -0.16085 21.58379 -16.87236 14.50442 -13.53489 33.18304 9.48650 10.30377 0.50620 1.23731 -9.19252 2.40548 1.65730 -17.24960 -9.26401 -8.80932 0.44220 41.10874 7.69079 21.57324 0.00605 -0.03301 -18.22714 -35.24544 4.30363 
17.03415 91.61882 -149.97290 -1.27445 -4.64293 -40.65121 1.16236 16.30938 12.80039 0.00177 0.01265 -0.00397 -20.48335 15.25991 32.24878 -1.58493 10.67056 -1.33326 -199.84006 -70.58743 -169.92749 -54.21840 58.10343 -90.02950 6.40779 8.65820 1.64176 7.73983 11.13542 3.67399 68.23270 -8.77544 80.22661 21.96383 40.08457 96.37889 -5.59889 10.05119 0.05944 20.79863 -15.97196 12.41299 -6.54825 26.27157 8.65379 9.37728 0.03729 0.12434 -15.04665 10.74026 2.24570 -17.02965 -10.18758 -10.07477 -5.22632 42.92634 12.14221 18.27169 -0.01146 -0.04019 -31.44756 -42.92875 -18.55991 
